<mxfile host="app.diagrams.net" modified="2023-02-25T09:30:37.715Z" agent="5.0 (Windows NT 10.0; Win64; x64) AppleWebKit/537.36 (KHTML, like Gecko) Chrome/109.0.0.0 Safari/537.36 OPR/95.0.0.0" etag="1FCSB2JaZnHEV0E3wQPQ" version="20.8.21" type="github">
  <diagram name="Página-1" id="3AIO7DQC8eQvnM0rA0-1">
    <mxGraphModel dx="1393" dy="758" grid="1" gridSize="10" guides="1" tooltips="1" connect="1" arrows="1" fold="1" page="1" pageScale="1" pageWidth="827" pageHeight="1169" math="0" shadow="0">
      <root>
        <mxCell id="0" />
        <mxCell id="1" parent="0" />
        <mxCell id="K6sb_gJMQFkPn2a9jANX-6" value="medico" style="whiteSpace=wrap;html=1;align=center;fillColor=#d5e8d4;strokeColor=#82b366;" vertex="1" parent="1">
          <mxGeometry x="249" y="120" width="100" height="40" as="geometry" />
        </mxCell>
        <mxCell id="K6sb_gJMQFkPn2a9jANX-7" value="paciente" style="whiteSpace=wrap;html=1;align=center;fillColor=#d5e8d4;strokeColor=#82b366;" vertex="1" parent="1">
          <mxGeometry x="249" y="400" width="100" height="40" as="geometry" />
        </mxCell>
        <mxCell id="K6sb_gJMQFkPn2a9jANX-8" value="quarto" style="whiteSpace=wrap;html=1;align=center;fillColor=#d5e8d4;strokeColor=#82b366;" vertex="1" parent="1">
          <mxGeometry x="629" y="260" width="100" height="40" as="geometry" />
        </mxCell>
        <mxCell id="K6sb_gJMQFkPn2a9jANX-24" style="rounded=0;orthogonalLoop=1;jettySize=auto;html=1;endArrow=none;endFill=0;" edge="1" parent="1" source="K6sb_gJMQFkPn2a9jANX-9" target="K6sb_gJMQFkPn2a9jANX-6">
          <mxGeometry relative="1" as="geometry" />
        </mxCell>
        <mxCell id="K6sb_gJMQFkPn2a9jANX-9" value="crm" style="ellipse;whiteSpace=wrap;html=1;align=center;fontStyle=4;fillColor=#f8cecc;strokeColor=#b85450;" vertex="1" parent="1">
          <mxGeometry x="249" y="40" width="100" height="40" as="geometry" />
        </mxCell>
        <mxCell id="K6sb_gJMQFkPn2a9jANX-25" style="edgeStyle=none;rounded=0;orthogonalLoop=1;jettySize=auto;html=1;endArrow=none;endFill=0;" edge="1" parent="1" source="K6sb_gJMQFkPn2a9jANX-10" target="K6sb_gJMQFkPn2a9jANX-6">
          <mxGeometry relative="1" as="geometry" />
        </mxCell>
        <mxCell id="K6sb_gJMQFkPn2a9jANX-10" value="nome" style="ellipse;whiteSpace=wrap;html=1;align=center;" vertex="1" parent="1">
          <mxGeometry x="149" y="70" width="100" height="40" as="geometry" />
        </mxCell>
        <mxCell id="K6sb_gJMQFkPn2a9jANX-27" style="edgeStyle=none;rounded=0;orthogonalLoop=1;jettySize=auto;html=1;endArrow=none;endFill=0;" edge="1" parent="1" source="K6sb_gJMQFkPn2a9jANX-12" target="K6sb_gJMQFkPn2a9jANX-6">
          <mxGeometry relative="1" as="geometry" />
        </mxCell>
        <mxCell id="K6sb_gJMQFkPn2a9jANX-12" value="salário" style="ellipse;whiteSpace=wrap;html=1;align=center;" vertex="1" parent="1">
          <mxGeometry x="99" y="120" width="100" height="40" as="geometry" />
        </mxCell>
        <mxCell id="K6sb_gJMQFkPn2a9jANX-32" style="edgeStyle=none;rounded=0;orthogonalLoop=1;jettySize=auto;html=1;endArrow=none;endFill=0;" edge="1" parent="1" source="K6sb_gJMQFkPn2a9jANX-14" target="K6sb_gJMQFkPn2a9jANX-7">
          <mxGeometry relative="1" as="geometry" />
        </mxCell>
        <mxCell id="K6sb_gJMQFkPn2a9jANX-14" value="rg" style="ellipse;whiteSpace=wrap;html=1;align=center;" vertex="1" parent="1">
          <mxGeometry x="380" y="350" width="100" height="40" as="geometry" />
        </mxCell>
        <mxCell id="K6sb_gJMQFkPn2a9jANX-31" style="edgeStyle=none;rounded=0;orthogonalLoop=1;jettySize=auto;html=1;endArrow=none;endFill=0;" edge="1" parent="1" source="K6sb_gJMQFkPn2a9jANX-15" target="K6sb_gJMQFkPn2a9jANX-7">
          <mxGeometry relative="1" as="geometry" />
        </mxCell>
        <mxCell id="K6sb_gJMQFkPn2a9jANX-15" value="nome" style="ellipse;whiteSpace=wrap;html=1;align=center;" vertex="1" parent="1">
          <mxGeometry x="99" y="400" width="100" height="40" as="geometry" />
        </mxCell>
        <mxCell id="K6sb_gJMQFkPn2a9jANX-30" style="edgeStyle=none;rounded=0;orthogonalLoop=1;jettySize=auto;html=1;endArrow=none;endFill=0;" edge="1" parent="1" source="K6sb_gJMQFkPn2a9jANX-16" target="K6sb_gJMQFkPn2a9jANX-7">
          <mxGeometry relative="1" as="geometry" />
        </mxCell>
        <mxCell id="K6sb_gJMQFkPn2a9jANX-16" value="endereço" style="ellipse;whiteSpace=wrap;html=1;align=center;" vertex="1" parent="1">
          <mxGeometry x="330" y="490" width="100" height="40" as="geometry" />
        </mxCell>
        <mxCell id="K6sb_gJMQFkPn2a9jANX-29" style="edgeStyle=none;rounded=0;orthogonalLoop=1;jettySize=auto;html=1;endArrow=none;endFill=0;" edge="1" parent="1" source="K6sb_gJMQFkPn2a9jANX-18" target="K6sb_gJMQFkPn2a9jANX-7">
          <mxGeometry relative="1" as="geometry" />
        </mxCell>
        <mxCell id="K6sb_gJMQFkPn2a9jANX-18" value="cpf" style="ellipse;whiteSpace=wrap;html=1;align=center;fontStyle=4;fillColor=#f8cecc;strokeColor=#b85450;" vertex="1" parent="1">
          <mxGeometry x="139" y="340" width="100" height="40" as="geometry" />
        </mxCell>
        <mxCell id="K6sb_gJMQFkPn2a9jANX-33" style="edgeStyle=none;rounded=0;orthogonalLoop=1;jettySize=auto;html=1;endArrow=none;endFill=0;" edge="1" parent="1" source="K6sb_gJMQFkPn2a9jANX-19" target="K6sb_gJMQFkPn2a9jANX-7">
          <mxGeometry relative="1" as="geometry" />
        </mxCell>
        <mxCell id="K6sb_gJMQFkPn2a9jANX-19" value="data_nascimento" style="ellipse;whiteSpace=wrap;html=1;align=center;" vertex="1" parent="1">
          <mxGeometry x="380" y="440" width="100" height="40" as="geometry" />
        </mxCell>
        <mxCell id="K6sb_gJMQFkPn2a9jANX-34" style="edgeStyle=none;rounded=0;orthogonalLoop=1;jettySize=auto;html=1;endArrow=none;endFill=0;" edge="1" parent="1" source="K6sb_gJMQFkPn2a9jANX-20" target="K6sb_gJMQFkPn2a9jANX-8">
          <mxGeometry relative="1" as="geometry" />
        </mxCell>
        <mxCell id="K6sb_gJMQFkPn2a9jANX-20" value="número" style="ellipse;whiteSpace=wrap;html=1;align=center;fontStyle=4;fillColor=#f8cecc;strokeColor=#b85450;" vertex="1" parent="1">
          <mxGeometry x="629" y="200" width="100" height="40" as="geometry" />
        </mxCell>
        <mxCell id="K6sb_gJMQFkPn2a9jANX-35" style="edgeStyle=none;rounded=0;orthogonalLoop=1;jettySize=auto;html=1;endArrow=none;endFill=0;" edge="1" parent="1" source="K6sb_gJMQFkPn2a9jANX-21" target="K6sb_gJMQFkPn2a9jANX-8">
          <mxGeometry relative="1" as="geometry" />
        </mxCell>
        <mxCell id="K6sb_gJMQFkPn2a9jANX-21" value="andar" style="ellipse;whiteSpace=wrap;html=1;align=center;" vertex="1" parent="1">
          <mxGeometry x="510" y="260" width="100" height="40" as="geometry" />
        </mxCell>
        <mxCell id="K6sb_gJMQFkPn2a9jANX-41" style="edgeStyle=none;rounded=0;orthogonalLoop=1;jettySize=auto;html=1;endArrow=none;endFill=0;" edge="1" parent="1" source="K6sb_gJMQFkPn2a9jANX-22" target="K6sb_gJMQFkPn2a9jANX-6">
          <mxGeometry relative="1" as="geometry" />
        </mxCell>
        <mxCell id="K6sb_gJMQFkPn2a9jANX-42" style="edgeStyle=none;rounded=0;orthogonalLoop=1;jettySize=auto;html=1;endArrow=none;endFill=0;" edge="1" parent="1" source="K6sb_gJMQFkPn2a9jANX-22" target="K6sb_gJMQFkPn2a9jANX-7">
          <mxGeometry relative="1" as="geometry" />
        </mxCell>
        <mxCell id="K6sb_gJMQFkPn2a9jANX-22" value="trata" style="shape=rhombus;perimeter=rhombusPerimeter;whiteSpace=wrap;html=1;align=center;fillColor=#dae8fc;strokeColor=#6c8ebf;" vertex="1" parent="1">
          <mxGeometry x="239" y="250" width="120" height="60" as="geometry" />
        </mxCell>
        <mxCell id="K6sb_gJMQFkPn2a9jANX-28" style="edgeStyle=none;rounded=0;orthogonalLoop=1;jettySize=auto;html=1;endArrow=none;endFill=0;" edge="1" parent="1" source="K6sb_gJMQFkPn2a9jANX-23" target="K6sb_gJMQFkPn2a9jANX-7">
          <mxGeometry relative="1" as="geometry" />
        </mxCell>
        <mxCell id="K6sb_gJMQFkPn2a9jANX-23" value="telefone" style="ellipse;shape=doubleEllipse;margin=3;whiteSpace=wrap;html=1;align=center;" vertex="1" parent="1">
          <mxGeometry x="139" y="460" width="100" height="40" as="geometry" />
        </mxCell>
        <mxCell id="K6sb_gJMQFkPn2a9jANX-36" style="edgeStyle=none;rounded=0;orthogonalLoop=1;jettySize=auto;html=1;exitX=0.5;exitY=0;exitDx=0;exitDy=0;endArrow=none;endFill=0;" edge="1" parent="1" source="K6sb_gJMQFkPn2a9jANX-18" target="K6sb_gJMQFkPn2a9jANX-18">
          <mxGeometry relative="1" as="geometry" />
        </mxCell>
        <mxCell id="K6sb_gJMQFkPn2a9jANX-46" style="edgeStyle=none;rounded=0;orthogonalLoop=1;jettySize=auto;html=1;endArrow=none;endFill=0;" edge="1" parent="1" source="K6sb_gJMQFkPn2a9jANX-45" target="K6sb_gJMQFkPn2a9jANX-7">
          <mxGeometry relative="1" as="geometry" />
        </mxCell>
        <mxCell id="K6sb_gJMQFkPn2a9jANX-47" style="edgeStyle=none;rounded=0;orthogonalLoop=1;jettySize=auto;html=1;endArrow=none;endFill=0;" edge="1" parent="1" source="K6sb_gJMQFkPn2a9jANX-45" target="K6sb_gJMQFkPn2a9jANX-8">
          <mxGeometry relative="1" as="geometry" />
        </mxCell>
        <mxCell id="K6sb_gJMQFkPn2a9jANX-45" value="ocupa" style="shape=rhombus;perimeter=rhombusPerimeter;whiteSpace=wrap;html=1;align=center;fillColor=#dae8fc;strokeColor=#6c8ebf;" vertex="1" parent="1">
          <mxGeometry x="619" y="390" width="120" height="60" as="geometry" />
        </mxCell>
        <mxCell id="K6sb_gJMQFkPn2a9jANX-58" style="edgeStyle=none;rounded=0;orthogonalLoop=1;jettySize=auto;html=1;endArrow=none;endFill=0;" edge="1" parent="1" source="K6sb_gJMQFkPn2a9jANX-54" target="K6sb_gJMQFkPn2a9jANX-7">
          <mxGeometry relative="1" as="geometry" />
        </mxCell>
        <mxCell id="K6sb_gJMQFkPn2a9jANX-54" value="horário_visita" style="ellipse;whiteSpace=wrap;html=1;align=center;" vertex="1" parent="1">
          <mxGeometry x="220" y="500" width="100" height="40" as="geometry" />
        </mxCell>
        <mxCell id="K6sb_gJMQFkPn2a9jANX-147" style="edgeStyle=none;rounded=0;orthogonalLoop=1;jettySize=auto;html=1;endArrow=none;endFill=0;" edge="1" parent="1" source="K6sb_gJMQFkPn2a9jANX-73" target="K6sb_gJMQFkPn2a9jANX-86">
          <mxGeometry relative="1" as="geometry" />
        </mxCell>
        <mxCell id="K6sb_gJMQFkPn2a9jANX-73" value="Médico" style="shape=table;startSize=30;container=1;collapsible=1;childLayout=tableLayout;fixedRows=1;rowLines=0;fontStyle=1;align=center;resizeLast=1;" vertex="1" parent="1">
          <mxGeometry x="40" y="805" width="180" height="150" as="geometry" />
        </mxCell>
        <mxCell id="K6sb_gJMQFkPn2a9jANX-74" value="" style="shape=tableRow;horizontal=0;startSize=0;swimlaneHead=0;swimlaneBody=0;fillColor=none;collapsible=0;dropTarget=0;points=[[0,0.5],[1,0.5]];portConstraint=eastwest;top=0;left=0;right=0;bottom=1;" vertex="1" parent="K6sb_gJMQFkPn2a9jANX-73">
          <mxGeometry y="30" width="180" height="30" as="geometry" />
        </mxCell>
        <mxCell id="K6sb_gJMQFkPn2a9jANX-75" value="PK" style="shape=partialRectangle;connectable=0;fillColor=none;top=0;left=0;bottom=0;right=0;fontStyle=1;overflow=hidden;" vertex="1" parent="K6sb_gJMQFkPn2a9jANX-74">
          <mxGeometry width="30" height="30" as="geometry">
            <mxRectangle width="30" height="30" as="alternateBounds" />
          </mxGeometry>
        </mxCell>
        <mxCell id="K6sb_gJMQFkPn2a9jANX-76" value="CRM" style="shape=partialRectangle;connectable=0;fillColor=none;top=0;left=0;bottom=0;right=0;align=left;spacingLeft=6;fontStyle=5;overflow=hidden;" vertex="1" parent="K6sb_gJMQFkPn2a9jANX-74">
          <mxGeometry x="30" width="150" height="30" as="geometry">
            <mxRectangle width="150" height="30" as="alternateBounds" />
          </mxGeometry>
        </mxCell>
        <mxCell id="K6sb_gJMQFkPn2a9jANX-77" value="" style="shape=tableRow;horizontal=0;startSize=0;swimlaneHead=0;swimlaneBody=0;fillColor=none;collapsible=0;dropTarget=0;points=[[0,0.5],[1,0.5]];portConstraint=eastwest;top=0;left=0;right=0;bottom=0;" vertex="1" parent="K6sb_gJMQFkPn2a9jANX-73">
          <mxGeometry y="60" width="180" height="30" as="geometry" />
        </mxCell>
        <mxCell id="K6sb_gJMQFkPn2a9jANX-78" value="" style="shape=partialRectangle;connectable=0;fillColor=none;top=0;left=0;bottom=0;right=0;editable=1;overflow=hidden;" vertex="1" parent="K6sb_gJMQFkPn2a9jANX-77">
          <mxGeometry width="30" height="30" as="geometry">
            <mxRectangle width="30" height="30" as="alternateBounds" />
          </mxGeometry>
        </mxCell>
        <mxCell id="K6sb_gJMQFkPn2a9jANX-79" value="Nome" style="shape=partialRectangle;connectable=0;fillColor=none;top=0;left=0;bottom=0;right=0;align=left;spacingLeft=6;overflow=hidden;" vertex="1" parent="K6sb_gJMQFkPn2a9jANX-77">
          <mxGeometry x="30" width="150" height="30" as="geometry">
            <mxRectangle width="150" height="30" as="alternateBounds" />
          </mxGeometry>
        </mxCell>
        <mxCell id="K6sb_gJMQFkPn2a9jANX-80" value="" style="shape=tableRow;horizontal=0;startSize=0;swimlaneHead=0;swimlaneBody=0;fillColor=none;collapsible=0;dropTarget=0;points=[[0,0.5],[1,0.5]];portConstraint=eastwest;top=0;left=0;right=0;bottom=0;" vertex="1" parent="K6sb_gJMQFkPn2a9jANX-73">
          <mxGeometry y="90" width="180" height="30" as="geometry" />
        </mxCell>
        <mxCell id="K6sb_gJMQFkPn2a9jANX-81" value="" style="shape=partialRectangle;connectable=0;fillColor=none;top=0;left=0;bottom=0;right=0;editable=1;overflow=hidden;" vertex="1" parent="K6sb_gJMQFkPn2a9jANX-80">
          <mxGeometry width="30" height="30" as="geometry">
            <mxRectangle width="30" height="30" as="alternateBounds" />
          </mxGeometry>
        </mxCell>
        <mxCell id="K6sb_gJMQFkPn2a9jANX-82" value="Salário" style="shape=partialRectangle;connectable=0;fillColor=none;top=0;left=0;bottom=0;right=0;align=left;spacingLeft=6;overflow=hidden;" vertex="1" parent="K6sb_gJMQFkPn2a9jANX-80">
          <mxGeometry x="30" width="150" height="30" as="geometry">
            <mxRectangle width="150" height="30" as="alternateBounds" />
          </mxGeometry>
        </mxCell>
        <mxCell id="K6sb_gJMQFkPn2a9jANX-83" value="" style="shape=tableRow;horizontal=0;startSize=0;swimlaneHead=0;swimlaneBody=0;fillColor=none;collapsible=0;dropTarget=0;points=[[0,0.5],[1,0.5]];portConstraint=eastwest;top=0;left=0;right=0;bottom=0;" vertex="1" parent="K6sb_gJMQFkPn2a9jANX-73">
          <mxGeometry y="120" width="180" height="30" as="geometry" />
        </mxCell>
        <mxCell id="K6sb_gJMQFkPn2a9jANX-84" value="" style="shape=partialRectangle;connectable=0;fillColor=none;top=0;left=0;bottom=0;right=0;editable=1;overflow=hidden;" vertex="1" parent="K6sb_gJMQFkPn2a9jANX-83">
          <mxGeometry width="30" height="30" as="geometry">
            <mxRectangle width="30" height="30" as="alternateBounds" />
          </mxGeometry>
        </mxCell>
        <mxCell id="K6sb_gJMQFkPn2a9jANX-85" value="Especialidade" style="shape=partialRectangle;connectable=0;fillColor=none;top=0;left=0;bottom=0;right=0;align=left;spacingLeft=6;overflow=hidden;" vertex="1" parent="K6sb_gJMQFkPn2a9jANX-83">
          <mxGeometry x="30" width="150" height="30" as="geometry">
            <mxRectangle width="150" height="30" as="alternateBounds" />
          </mxGeometry>
        </mxCell>
        <mxCell id="K6sb_gJMQFkPn2a9jANX-86" value="Paciente" style="shape=table;startSize=30;container=1;collapsible=1;childLayout=tableLayout;fixedRows=1;rowLines=0;fontStyle=1;align=center;resizeLast=1;" vertex="1" parent="1">
          <mxGeometry x="610" y="760" width="180" height="240" as="geometry" />
        </mxCell>
        <mxCell id="K6sb_gJMQFkPn2a9jANX-87" value="" style="shape=tableRow;horizontal=0;startSize=0;swimlaneHead=0;swimlaneBody=0;fillColor=none;collapsible=0;dropTarget=0;points=[[0,0.5],[1,0.5]];portConstraint=eastwest;top=0;left=0;right=0;bottom=1;" vertex="1" parent="K6sb_gJMQFkPn2a9jANX-86">
          <mxGeometry y="30" width="180" height="30" as="geometry" />
        </mxCell>
        <mxCell id="K6sb_gJMQFkPn2a9jANX-88" value="PK" style="shape=partialRectangle;connectable=0;fillColor=none;top=0;left=0;bottom=0;right=0;fontStyle=1;overflow=hidden;" vertex="1" parent="K6sb_gJMQFkPn2a9jANX-87">
          <mxGeometry width="30" height="30" as="geometry">
            <mxRectangle width="30" height="30" as="alternateBounds" />
          </mxGeometry>
        </mxCell>
        <mxCell id="K6sb_gJMQFkPn2a9jANX-89" value="CPF" style="shape=partialRectangle;connectable=0;fillColor=none;top=0;left=0;bottom=0;right=0;align=left;spacingLeft=6;fontStyle=5;overflow=hidden;" vertex="1" parent="K6sb_gJMQFkPn2a9jANX-87">
          <mxGeometry x="30" width="150" height="30" as="geometry">
            <mxRectangle width="150" height="30" as="alternateBounds" />
          </mxGeometry>
        </mxCell>
        <mxCell id="K6sb_gJMQFkPn2a9jANX-90" value="" style="shape=tableRow;horizontal=0;startSize=0;swimlaneHead=0;swimlaneBody=0;fillColor=none;collapsible=0;dropTarget=0;points=[[0,0.5],[1,0.5]];portConstraint=eastwest;top=0;left=0;right=0;bottom=0;" vertex="1" parent="K6sb_gJMQFkPn2a9jANX-86">
          <mxGeometry y="60" width="180" height="30" as="geometry" />
        </mxCell>
        <mxCell id="K6sb_gJMQFkPn2a9jANX-91" value="" style="shape=partialRectangle;connectable=0;fillColor=none;top=0;left=0;bottom=0;right=0;editable=1;overflow=hidden;" vertex="1" parent="K6sb_gJMQFkPn2a9jANX-90">
          <mxGeometry width="30" height="30" as="geometry">
            <mxRectangle width="30" height="30" as="alternateBounds" />
          </mxGeometry>
        </mxCell>
        <mxCell id="K6sb_gJMQFkPn2a9jANX-92" value="RG" style="shape=partialRectangle;connectable=0;fillColor=none;top=0;left=0;bottom=0;right=0;align=left;spacingLeft=6;overflow=hidden;" vertex="1" parent="K6sb_gJMQFkPn2a9jANX-90">
          <mxGeometry x="30" width="150" height="30" as="geometry">
            <mxRectangle width="150" height="30" as="alternateBounds" />
          </mxGeometry>
        </mxCell>
        <mxCell id="K6sb_gJMQFkPn2a9jANX-93" value="" style="shape=tableRow;horizontal=0;startSize=0;swimlaneHead=0;swimlaneBody=0;fillColor=none;collapsible=0;dropTarget=0;points=[[0,0.5],[1,0.5]];portConstraint=eastwest;top=0;left=0;right=0;bottom=0;" vertex="1" parent="K6sb_gJMQFkPn2a9jANX-86">
          <mxGeometry y="90" width="180" height="30" as="geometry" />
        </mxCell>
        <mxCell id="K6sb_gJMQFkPn2a9jANX-94" value="" style="shape=partialRectangle;connectable=0;fillColor=none;top=0;left=0;bottom=0;right=0;editable=1;overflow=hidden;" vertex="1" parent="K6sb_gJMQFkPn2a9jANX-93">
          <mxGeometry width="30" height="30" as="geometry">
            <mxRectangle width="30" height="30" as="alternateBounds" />
          </mxGeometry>
        </mxCell>
        <mxCell id="K6sb_gJMQFkPn2a9jANX-95" value="Nome" style="shape=partialRectangle;connectable=0;fillColor=none;top=0;left=0;bottom=0;right=0;align=left;spacingLeft=6;overflow=hidden;" vertex="1" parent="K6sb_gJMQFkPn2a9jANX-93">
          <mxGeometry x="30" width="150" height="30" as="geometry">
            <mxRectangle width="150" height="30" as="alternateBounds" />
          </mxGeometry>
        </mxCell>
        <mxCell id="K6sb_gJMQFkPn2a9jANX-125" value="" style="shape=tableRow;horizontal=0;startSize=0;swimlaneHead=0;swimlaneBody=0;fillColor=none;collapsible=0;dropTarget=0;points=[[0,0.5],[1,0.5]];portConstraint=eastwest;top=0;left=0;right=0;bottom=0;" vertex="1" parent="K6sb_gJMQFkPn2a9jANX-86">
          <mxGeometry y="120" width="180" height="30" as="geometry" />
        </mxCell>
        <mxCell id="K6sb_gJMQFkPn2a9jANX-126" value="" style="shape=partialRectangle;connectable=0;fillColor=none;top=0;left=0;bottom=0;right=0;editable=1;overflow=hidden;" vertex="1" parent="K6sb_gJMQFkPn2a9jANX-125">
          <mxGeometry width="30" height="30" as="geometry">
            <mxRectangle width="30" height="30" as="alternateBounds" />
          </mxGeometry>
        </mxCell>
        <mxCell id="K6sb_gJMQFkPn2a9jANX-127" value="Endereço" style="shape=partialRectangle;connectable=0;fillColor=none;top=0;left=0;bottom=0;right=0;align=left;spacingLeft=6;overflow=hidden;" vertex="1" parent="K6sb_gJMQFkPn2a9jANX-125">
          <mxGeometry x="30" width="150" height="30" as="geometry">
            <mxRectangle width="150" height="30" as="alternateBounds" />
          </mxGeometry>
        </mxCell>
        <mxCell id="K6sb_gJMQFkPn2a9jANX-128" value="" style="shape=tableRow;horizontal=0;startSize=0;swimlaneHead=0;swimlaneBody=0;fillColor=none;collapsible=0;dropTarget=0;points=[[0,0.5],[1,0.5]];portConstraint=eastwest;top=0;left=0;right=0;bottom=0;" vertex="1" parent="K6sb_gJMQFkPn2a9jANX-86">
          <mxGeometry y="150" width="180" height="30" as="geometry" />
        </mxCell>
        <mxCell id="K6sb_gJMQFkPn2a9jANX-129" value="" style="shape=partialRectangle;connectable=0;fillColor=none;top=0;left=0;bottom=0;right=0;editable=1;overflow=hidden;" vertex="1" parent="K6sb_gJMQFkPn2a9jANX-128">
          <mxGeometry width="30" height="30" as="geometry">
            <mxRectangle width="30" height="30" as="alternateBounds" />
          </mxGeometry>
        </mxCell>
        <mxCell id="K6sb_gJMQFkPn2a9jANX-130" value="Telefone(s)" style="shape=partialRectangle;connectable=0;fillColor=none;top=0;left=0;bottom=0;right=0;align=left;spacingLeft=6;overflow=hidden;" vertex="1" parent="K6sb_gJMQFkPn2a9jANX-128">
          <mxGeometry x="30" width="150" height="30" as="geometry">
            <mxRectangle width="150" height="30" as="alternateBounds" />
          </mxGeometry>
        </mxCell>
        <mxCell id="K6sb_gJMQFkPn2a9jANX-131" value="" style="shape=tableRow;horizontal=0;startSize=0;swimlaneHead=0;swimlaneBody=0;fillColor=none;collapsible=0;dropTarget=0;points=[[0,0.5],[1,0.5]];portConstraint=eastwest;top=0;left=0;right=0;bottom=0;" vertex="1" parent="K6sb_gJMQFkPn2a9jANX-86">
          <mxGeometry y="180" width="180" height="30" as="geometry" />
        </mxCell>
        <mxCell id="K6sb_gJMQFkPn2a9jANX-132" value="" style="shape=partialRectangle;connectable=0;fillColor=none;top=0;left=0;bottom=0;right=0;editable=1;overflow=hidden;" vertex="1" parent="K6sb_gJMQFkPn2a9jANX-131">
          <mxGeometry width="30" height="30" as="geometry">
            <mxRectangle width="30" height="30" as="alternateBounds" />
          </mxGeometry>
        </mxCell>
        <mxCell id="K6sb_gJMQFkPn2a9jANX-133" value="Data de Nascimento" style="shape=partialRectangle;connectable=0;fillColor=none;top=0;left=0;bottom=0;right=0;align=left;spacingLeft=6;overflow=hidden;" vertex="1" parent="K6sb_gJMQFkPn2a9jANX-131">
          <mxGeometry x="30" width="150" height="30" as="geometry">
            <mxRectangle width="150" height="30" as="alternateBounds" />
          </mxGeometry>
        </mxCell>
        <mxCell id="K6sb_gJMQFkPn2a9jANX-96" value="" style="shape=tableRow;horizontal=0;startSize=0;swimlaneHead=0;swimlaneBody=0;fillColor=none;collapsible=0;dropTarget=0;points=[[0,0.5],[1,0.5]];portConstraint=eastwest;top=0;left=0;right=0;bottom=0;" vertex="1" parent="K6sb_gJMQFkPn2a9jANX-86">
          <mxGeometry y="210" width="180" height="30" as="geometry" />
        </mxCell>
        <mxCell id="K6sb_gJMQFkPn2a9jANX-97" value="" style="shape=partialRectangle;connectable=0;fillColor=none;top=0;left=0;bottom=0;right=0;editable=1;overflow=hidden;" vertex="1" parent="K6sb_gJMQFkPn2a9jANX-96">
          <mxGeometry width="30" height="30" as="geometry">
            <mxRectangle width="30" height="30" as="alternateBounds" />
          </mxGeometry>
        </mxCell>
        <mxCell id="K6sb_gJMQFkPn2a9jANX-98" value="Médico Responsável" style="shape=partialRectangle;connectable=0;fillColor=none;top=0;left=0;bottom=0;right=0;align=left;spacingLeft=6;overflow=hidden;" vertex="1" parent="K6sb_gJMQFkPn2a9jANX-96">
          <mxGeometry x="30" width="150" height="30" as="geometry">
            <mxRectangle width="150" height="30" as="alternateBounds" />
          </mxGeometry>
        </mxCell>
        <mxCell id="K6sb_gJMQFkPn2a9jANX-112" value="Internação" style="shape=table;startSize=30;container=1;collapsible=1;childLayout=tableLayout;fixedRows=1;rowLines=0;fontStyle=1;align=center;resizeLast=1;" vertex="1" parent="1">
          <mxGeometry x="40" y="1030" width="180" height="90" as="geometry" />
        </mxCell>
        <mxCell id="K6sb_gJMQFkPn2a9jANX-137" value="" style="shape=tableRow;horizontal=0;startSize=0;swimlaneHead=0;swimlaneBody=0;fillColor=none;collapsible=0;dropTarget=0;points=[[0,0.5],[1,0.5]];portConstraint=eastwest;top=0;left=0;right=0;bottom=0;" vertex="1" parent="K6sb_gJMQFkPn2a9jANX-112">
          <mxGeometry y="30" width="180" height="30" as="geometry" />
        </mxCell>
        <mxCell id="K6sb_gJMQFkPn2a9jANX-138" value="FK" style="shape=partialRectangle;connectable=0;fillColor=none;top=0;left=0;bottom=0;right=0;fontStyle=0;overflow=hidden;" vertex="1" parent="K6sb_gJMQFkPn2a9jANX-137">
          <mxGeometry width="30" height="30" as="geometry">
            <mxRectangle width="30" height="30" as="alternateBounds" />
          </mxGeometry>
        </mxCell>
        <mxCell id="K6sb_gJMQFkPn2a9jANX-139" value="Paciente" style="shape=partialRectangle;connectable=0;fillColor=none;top=0;left=0;bottom=0;right=0;align=left;spacingLeft=6;fontStyle=0;overflow=hidden;" vertex="1" parent="K6sb_gJMQFkPn2a9jANX-137">
          <mxGeometry x="30" width="150" height="30" as="geometry">
            <mxRectangle width="150" height="30" as="alternateBounds" />
          </mxGeometry>
        </mxCell>
        <mxCell id="K6sb_gJMQFkPn2a9jANX-134" value="" style="shape=tableRow;horizontal=0;startSize=0;swimlaneHead=0;swimlaneBody=0;fillColor=none;collapsible=0;dropTarget=0;points=[[0,0.5],[1,0.5]];portConstraint=eastwest;top=0;left=0;right=0;bottom=0;" vertex="1" parent="K6sb_gJMQFkPn2a9jANX-112">
          <mxGeometry y="60" width="180" height="30" as="geometry" />
        </mxCell>
        <mxCell id="K6sb_gJMQFkPn2a9jANX-135" value="FK" style="shape=partialRectangle;connectable=0;fillColor=none;top=0;left=0;bottom=0;right=0;fontStyle=0;overflow=hidden;" vertex="1" parent="K6sb_gJMQFkPn2a9jANX-134">
          <mxGeometry width="30" height="30" as="geometry">
            <mxRectangle width="30" height="30" as="alternateBounds" />
          </mxGeometry>
        </mxCell>
        <mxCell id="K6sb_gJMQFkPn2a9jANX-136" value="Quarto" style="shape=partialRectangle;connectable=0;fillColor=none;top=0;left=0;bottom=0;right=0;align=left;spacingLeft=6;fontStyle=0;overflow=hidden;" vertex="1" parent="K6sb_gJMQFkPn2a9jANX-134">
          <mxGeometry x="30" width="150" height="30" as="geometry">
            <mxRectangle width="150" height="30" as="alternateBounds" />
          </mxGeometry>
        </mxCell>
        <mxCell id="K6sb_gJMQFkPn2a9jANX-148" style="edgeStyle=none;rounded=0;orthogonalLoop=1;jettySize=auto;html=1;endArrow=none;endFill=0;" edge="1" parent="1" source="K6sb_gJMQFkPn2a9jANX-140" target="K6sb_gJMQFkPn2a9jANX-86">
          <mxGeometry relative="1" as="geometry" />
        </mxCell>
        <mxCell id="K6sb_gJMQFkPn2a9jANX-140" value="Quarto" style="shape=table;startSize=30;container=1;collapsible=1;childLayout=tableLayout;fixedRows=1;rowLines=0;fontStyle=1;align=center;resizeLast=1;" vertex="1" parent="1">
          <mxGeometry x="610" y="1040" width="180" height="90" as="geometry" />
        </mxCell>
        <mxCell id="K6sb_gJMQFkPn2a9jANX-141" value="" style="shape=tableRow;horizontal=0;startSize=0;swimlaneHead=0;swimlaneBody=0;fillColor=none;collapsible=0;dropTarget=0;points=[[0,0.5],[1,0.5]];portConstraint=eastwest;top=0;left=0;right=0;bottom=1;" vertex="1" parent="K6sb_gJMQFkPn2a9jANX-140">
          <mxGeometry y="30" width="180" height="30" as="geometry" />
        </mxCell>
        <mxCell id="K6sb_gJMQFkPn2a9jANX-142" value="PK" style="shape=partialRectangle;connectable=0;fillColor=none;top=0;left=0;bottom=0;right=0;fontStyle=1;overflow=hidden;" vertex="1" parent="K6sb_gJMQFkPn2a9jANX-141">
          <mxGeometry width="30" height="30" as="geometry">
            <mxRectangle width="30" height="30" as="alternateBounds" />
          </mxGeometry>
        </mxCell>
        <mxCell id="K6sb_gJMQFkPn2a9jANX-143" value="Número" style="shape=partialRectangle;connectable=0;fillColor=none;top=0;left=0;bottom=0;right=0;align=left;spacingLeft=6;fontStyle=5;overflow=hidden;" vertex="1" parent="K6sb_gJMQFkPn2a9jANX-141">
          <mxGeometry x="30" width="150" height="30" as="geometry">
            <mxRectangle width="150" height="30" as="alternateBounds" />
          </mxGeometry>
        </mxCell>
        <mxCell id="K6sb_gJMQFkPn2a9jANX-144" value="" style="shape=tableRow;horizontal=0;startSize=0;swimlaneHead=0;swimlaneBody=0;fillColor=none;collapsible=0;dropTarget=0;points=[[0,0.5],[1,0.5]];portConstraint=eastwest;top=0;left=0;right=0;bottom=0;" vertex="1" parent="K6sb_gJMQFkPn2a9jANX-140">
          <mxGeometry y="60" width="180" height="30" as="geometry" />
        </mxCell>
        <mxCell id="K6sb_gJMQFkPn2a9jANX-145" value="" style="shape=partialRectangle;connectable=0;fillColor=none;top=0;left=0;bottom=0;right=0;editable=1;overflow=hidden;" vertex="1" parent="K6sb_gJMQFkPn2a9jANX-144">
          <mxGeometry width="30" height="30" as="geometry">
            <mxRectangle width="30" height="30" as="alternateBounds" />
          </mxGeometry>
        </mxCell>
        <mxCell id="K6sb_gJMQFkPn2a9jANX-146" value="Andar" style="shape=partialRectangle;connectable=0;fillColor=none;top=0;left=0;bottom=0;right=0;align=left;spacingLeft=6;overflow=hidden;" vertex="1" parent="K6sb_gJMQFkPn2a9jANX-144">
          <mxGeometry x="30" width="150" height="30" as="geometry">
            <mxRectangle width="150" height="30" as="alternateBounds" />
          </mxGeometry>
        </mxCell>
        <mxCell id="K6sb_gJMQFkPn2a9jANX-150" style="edgeStyle=none;rounded=0;orthogonalLoop=1;jettySize=auto;html=1;endArrow=none;endFill=0;" edge="1" parent="1" source="K6sb_gJMQFkPn2a9jANX-149" target="K6sb_gJMQFkPn2a9jANX-6">
          <mxGeometry relative="1" as="geometry" />
        </mxCell>
        <mxCell id="K6sb_gJMQFkPn2a9jANX-149" value="especialidade" style="ellipse;shape=doubleEllipse;margin=3;whiteSpace=wrap;html=1;align=center;" vertex="1" parent="1">
          <mxGeometry x="349" y="70" width="100" height="40" as="geometry" />
        </mxCell>
      </root>
    </mxGraphModel>
  </diagram>
</mxfile>
